<svg id="Layer_1" data-name="Layer 1" xmlns="http://www.w3.org/2000/svg" viewBox="0 0 1060 1060"><defs><style>.cls-1{fill:#f2f1d7;}.cls-2{fill:#f18772;}</style></defs><title>Logo</title><path class="cls-1" d="M197.09,597.37v-7.12h25.06v-144h-4.49a31.79,31.79,0,0,0-15.3,3.43q-9.23,5.28-15,22.16l-8.18,23.74h-7.91l1-56.45H308.93L310,495.56h-7.91l-8.18-23.74q-1.84-5-3.43-8.71-7.9-16.87-26.9-16.88h-4.49v144H277q5.53.54,7.12,7.12Z"/><path class="cls-1" d="M389.64,576a37.57,37.57,0,0,1-3.43,7.12Q375.67,600,353.24,600a46,46,0,0,1-13.45-1.85q-20.58-6.58-20.58-30.07.27-34.55,68.06-35.87V515.08a71.73,71.73,0,0,0-1.06-13.19q-2.64-15-15-15a15.74,15.74,0,0,0-6.6,1.32q-4.49,2.64-7.38,13.19c-.71,2.47-1.24,4.22-1.59,5.28q-3.94,11.07-15.29,11.07a15.75,15.75,0,0,1-5-.79q-9.75-2.62-9.76-12.92a16.17,16.17,0,0,1,2.38-8.44Q337.15,480,373,480a75.48,75.48,0,0,1,17.15,1.84q30.58,7.65,30.6,40.62v55.13q0,12.66,5.8,13.19,7.65-.25,9.23-18.47l6.86.27A71.76,71.76,0,0,1,440.28,586q-4.74,14-24,14Q395.17,598.69,389.64,576Zm-18.46,11.87q11.07-4.21,16.09-22.69V539.61a79.12,79.12,0,0,0-19.52,2.9q-14.25,5.28-14.25,22.68.27,22.95,13.46,23.48A13.86,13.86,0,0,0,371.18,587.88Z"/><path class="cls-2" d="M539.73,572.58a46.44,46.44,0,0,1-3.17,6.59Q524.69,600,500.16,600a44.17,44.17,0,0,1-26.9-9q-21.37-15.56-21.37-48.27,0-26.37,13.72-43.78,15.83-19.26,40.88-19.26,18.72,0,32.18,11.61V432.78h-24v-6.86h57.5V590.25H584.3a16.08,16.08,0,0,1,3.17.27c2.11.52,3.16,2.81,3.16,6.85H543.42Zm-50.38-14.77q4.47,30.06,22.94,30.07a19.39,19.39,0,0,0,10.29-2.9q16.62-10.82,16.62-50.38a128.61,128.61,0,0,0-1.06-16.89q-4.49-29.27-23.47-29.27a20.45,20.45,0,0,0-10,2.63Q488,501.11,488,539.61A113.57,113.57,0,0,0,489.35,557.81Z"/><path class="cls-2" d="M703.26,492.39Q724.1,509,724.1,538.55a61.64,61.64,0,0,1-13.19,39Q693.24,600,662.12,600q-22.7,0-39-13.72-20.58-17.4-20.58-47.21,0-21.11,12.14-36.93Q632,480,664.49,480,687.17,480,703.26,492.39ZM641.8,576.27q4.76,16.89,21.11,16.88,9.23,0,15-5.54,10-10,10-48.53,0-24-3.16-35.08-4.75-17.14-21.63-17.15-10,0-15.56,6.07-9,10.29-9,47.21Q638.64,564.94,641.8,576.27Z"/><path class="cls-1" d="M840.69,492.39q20.84,16.62,20.84,46.16a61.64,61.64,0,0,1-13.19,39Q830.66,600,799.54,600q-22.69,0-39-13.72-20.57-17.4-20.57-47.21,0-21.11,12.13-36.93Q769.47,480,801.91,480,824.59,480,840.69,492.39Zm-61.46,83.88q4.74,16.89,21.1,16.88,9.23,0,15-5.54,10-10,10-48.53,0-24-3.17-35.08-4.74-17.14-21.63-17.15-10,0-15.56,6.07-9,10.29-9,47.21Q776.06,564.94,779.23,576.27Z"/><line class="cls-2" x1="488.22" y1="388.16" x2="507.8" y2="407.74"/><rect class="cls-2" x="494.51" y="384.1" width="7" height="27.69" transform="translate(-135.53 468.7) rotate(-45)"/><line class="cls-2" x1="520.48" y1="368.13" x2="529.72" y2="394.23"/><rect class="cls-2" x="521.6" y="367.33" width="7" height="27.69" transform="translate(-97.08 197.02) rotate(-19.49)"/><line class="cls-2" x1="574.22" y1="369.57" x2="564.63" y2="395.54"/><rect class="cls-2" x="555.58" y="379.05" width="27.69" height="7" transform="translate(13.25 784.13) rotate(-69.72)"/><line class="cls-2" x1="605.13" y1="391.29" x2="585.13" y2="410.44"/><rect class="cls-2" x="581.29" y="397.36" width="27.69" height="7" transform="translate(-111.97 522.85) rotate(-43.75)"/></svg>